<?xml version="1.0" encoding="iso-8859-1"?>
<!-- Uploaded to: SVG Repo, www.svgrepo.com, Generator: SVG Repo Mixer Tools -->
<svg fill="#000000" height="800px" width="800px" version="1.1" id="Layer_1" xmlns="http://www.w3.org/2000/svg" xmlns:xlink="http://www.w3.org/1999/xlink" 
	 viewBox="0 0 512 512" xml:space="preserve">
<g>
	<g>
		<g>
			<path d="M0,0v512h512V0H0z M469.333,469.333H42.667V42.667h426.667V469.333z"/>
			<path d="M128,277.333h204.497l-48.915,48.915c-8.331,8.331-8.331,21.839,0,30.17c8.331,8.331,21.839,8.331,30.17,0l85.333-85.333
				c0.004-0.004,0.006-0.008,0.01-0.011c0.493-0.494,0.96-1.012,1.403-1.552c0.203-0.247,0.379-0.507,0.569-0.761
				c0.227-0.303,0.462-0.6,0.673-0.915c0.203-0.304,0.379-0.619,0.565-0.93c0.171-0.286,0.35-0.565,0.508-0.86
				c0.17-0.317,0.313-0.643,0.466-0.967c0.145-0.308,0.299-0.61,0.43-0.925c0.13-0.314,0.235-0.635,0.349-0.953
				c0.122-0.338,0.251-0.672,0.356-1.018c0.096-0.318,0.167-0.642,0.248-0.964c0.089-0.353,0.188-0.701,0.259-1.061
				c0.074-0.372,0.117-0.748,0.171-1.122c0.045-0.314,0.105-0.622,0.136-0.941c0.138-1.4,0.138-2.81,0-4.21
				c-0.031-0.318-0.091-0.627-0.136-0.941c-0.054-0.375-0.097-0.75-0.171-1.122c-0.071-0.359-0.17-0.708-0.259-1.061
				c-0.081-0.322-0.152-0.645-0.248-0.964c-0.105-0.346-0.234-0.68-0.356-1.018c-0.114-0.318-0.219-0.639-0.349-0.953
				c-0.131-0.315-0.284-0.618-0.43-0.925c-0.153-0.324-0.296-0.65-0.466-0.967c-0.158-0.294-0.337-0.574-0.508-0.86
				c-0.186-0.311-0.362-0.626-0.565-0.93c-0.211-0.315-0.446-0.612-0.673-0.915c-0.19-0.254-0.366-0.514-0.569-0.761
				c-0.443-0.54-0.91-1.059-1.403-1.552c-0.004-0.004-0.006-0.008-0.01-0.011l-85.333-85.333c-8.331-8.331-21.839-8.331-30.17,0
				s-8.331,21.839,0,30.17l48.915,48.915H128c-11.782,0-21.333,9.551-21.333,21.333S116.218,277.333,128,277.333z"/>
		</g>
	</g>
</g>
</svg>